<svg xmlns="http://www.w3.org/2000/svg" viewBox="0 0 600 420" width="600" height="420"><rect width="600" height="420" fill="#e7eeea"/><circle cx="300" cy="220" r="138" fill="#d7e3da"/><path d="M159 207H454V233Q452 280 400 280H206Q159 280 159 233Z" fill="#f5f2ea" stroke="#173d43" stroke-width="4"/><ellipse cx="306" cy="207" rx="148" ry="24" fill="#d7ecec" stroke="#173d43" stroke-width="4"/><path d="M302 184V135Q302 107 328 107H365V144" fill="none" stroke="#b97d50" stroke-width="17" stroke-linecap="round" stroke-linejoin="round"/><path d="M302 184V135Q302 107 328 107H365V144" fill="none" stroke="#dfb791" stroke-width="5" stroke-linecap="round" stroke-linejoin="round"/><path d="M366 146V187" stroke="#71a9ac" stroke-width="4" stroke-dasharray="5 9"/><path d="M300 280V315Q300 342 334 342H400" fill="none" stroke="#b97d50" stroke-width="17" stroke-linecap="round" stroke-linejoin="round"/><path d="M300 280V315Q300 342 334 342H400" fill="none" stroke="#dfb791" stroke-width="5" stroke-linecap="round" stroke-linejoin="round"/><path d="M201 280V367M411 280V367" stroke="#173d43" stroke-width="7"/><rect x="186" y="199" width="17" height="8" rx="4" fill="#b97d50"/></svg>